<svg width="64" height="28" viewBox="0 0 64 28" fill="none" xmlns="http://www.w3.org/2000/svg">
<g clip-path="url(#clip0_2312_40)">
<path d="M13.7121 21.6339H1.02808V1.61389H5.56407V18.0779H13.7121V21.6339ZM29.7505 14.3819C29.7505 19.0019 26.4185 21.9419 22.0225 21.9419C17.6545 21.9419 14.3225 19.0299 14.3225 14.4659V14.2419C14.3225 9.64993 17.6545 6.65393 22.0505 6.65393C26.4465 6.65393 29.7505 9.59393 29.7505 14.1579V14.3819ZM18.4665 14.3819C18.4665 17.1819 19.7545 18.8619 22.0505 18.8619C24.3185 18.8619 25.6345 17.1819 25.6345 14.4099V14.2139C25.6345 11.4139 24.3185 9.73393 22.0505 9.73393C19.8105 9.73393 18.4665 11.3579 18.4665 14.1579V14.3819ZM38.1286 27.0379C42.9446 27.0379 45.8286 24.8259 45.8566 20.4859V6.98993H41.8246V9.17393C40.9846 7.68993 39.5566 6.65393 37.1766 6.65393C33.5366 6.65393 30.7366 9.59393 30.7366 13.7939V13.9899C30.7366 18.3299 33.5646 20.9899 37.1206 20.9899C39.2766 20.9899 41.0126 19.7019 41.8246 18.2739V20.4859C41.8246 22.7819 40.5926 24.0699 38.1286 24.0699C36.0566 24.0699 35.1326 23.2299 34.8806 21.9419H30.8486C31.2406 24.9659 33.3966 27.0379 38.1286 27.0379ZM38.3246 17.9379C36.3086 17.9379 34.8806 16.4259 34.8806 13.9899V13.7659C34.8806 11.3579 36.1406 9.73393 38.4086 9.73393C40.6206 9.73393 41.9366 11.2459 41.9366 13.7379V13.9339C41.9366 16.4259 40.4526 17.9379 38.3246 17.9379ZM63.1253 14.3819C63.1253 19.0019 59.7933 21.9419 55.3973 21.9419C51.0293 21.9419 47.6973 19.0299 47.6973 14.4659V14.2419C47.6973 9.64993 51.0293 6.65393 55.4253 6.65393C59.8213 6.65393 63.1253 9.59393 63.1253 14.1579V14.3819ZM51.8413 14.3819C51.8413 17.1819 53.1293 18.8619 55.4253 18.8619C57.6933 18.8619 59.0093 17.1819 59.0093 14.4099V14.2139C59.0093 11.4139 57.6933 9.73393 55.4253 9.73393C53.1853 9.73393 51.8413 11.3579 51.8413 14.1579V14.3819Z" fill="black"/>
<path fill-rule="evenodd" clip-rule="evenodd" d="M13.7121 21.6339H1.02808V1.61389H5.56407V18.0779H13.7121V21.6339ZM29.7505 14.3819C29.7505 19.0019 26.4185 21.9419 22.0225 21.9419C17.6545 21.9419 14.3225 19.0299 14.3225 14.4659V14.2419C14.3225 9.64993 17.6545 6.65393 22.0505 6.65393C26.4465 6.65393 29.7505 9.59393 29.7505 14.1579V14.3819ZM18.4665 14.3819C18.4665 17.1819 19.7545 18.8619 22.0505 18.8619C24.3185 18.8619 25.6345 17.1819 25.6345 14.4099V14.2139C25.6345 11.4139 24.3185 9.73393 22.0505 9.73393C19.8105 9.73393 18.4665 11.3579 18.4665 14.1579V14.3819ZM38.1286 27.0379C42.9446 27.0379 45.8286 24.8259 45.8566 20.4859V6.98993H41.8246V9.17393C40.9846 7.68993 39.5566 6.65393 37.1766 6.65393C33.5366 6.65393 30.7366 9.59393 30.7366 13.7939V13.9899C30.7366 18.3299 33.5646 20.9899 37.1206 20.9899C39.2766 20.9899 41.0126 19.7019 41.8246 18.2739V20.4859C41.8246 22.7819 40.5926 24.0699 38.1286 24.0699C36.0566 24.0699 35.1326 23.2299 34.8806 21.9419H30.8486C31.2406 24.9659 33.3966 27.0379 38.1286 27.0379ZM38.3246 17.9379C36.3086 17.9379 34.8806 16.4259 34.8806 13.9899V13.7659C34.8806 11.3579 36.1406 9.73393 38.4086 9.73393C40.6206 9.73393 41.9366 11.2459 41.9366 13.7379V13.9339C41.9366 16.4259 40.4526 17.9379 38.3246 17.9379ZM63.1253 14.3819C63.1253 19.0019 59.7933 21.9419 55.3973 21.9419C51.0293 21.9419 47.6973 19.0299 47.6973 14.4659V14.2419C47.6973 9.64993 51.0293 6.65393 55.4253 6.65393C59.8213 6.65393 63.1253 9.59393 63.1253 14.1579V14.3819ZM51.8413 14.3819C51.8413 17.1819 53.1293 18.8619 55.4253 18.8619C57.6933 18.8619 59.0093 17.1819 59.0093 14.4099V14.2139C59.0093 11.4139 57.6933 9.73393 55.4253 9.73393C53.1853 9.73393 51.8413 11.3579 51.8413 14.1579V14.3819Z" fill="black"/>
<path fill-rule="evenodd" clip-rule="evenodd" d="M13.7121 21.6339H1.02808V1.61389H5.56407V18.0779H13.7121V21.6339ZM29.7505 14.3819C29.7505 19.0019 26.4185 21.9419 22.0225 21.9419C17.6545 21.9419 14.3225 19.0299 14.3225 14.4659V14.2419C14.3225 9.64993 17.6545 6.65393 22.0505 6.65393C26.4465 6.65393 29.7505 9.59393 29.7505 14.1579V14.3819ZM18.4665 14.3819C18.4665 17.1819 19.7545 18.8619 22.0505 18.8619C24.3185 18.8619 25.6345 17.1819 25.6345 14.4099V14.2139C25.6345 11.4139 24.3185 9.73393 22.0505 9.73393C19.8105 9.73393 18.4665 11.3579 18.4665 14.1579V14.3819ZM38.1286 27.0379C42.9446 27.0379 45.8286 24.8259 45.8566 20.4859V6.98993H41.8246V9.17393C40.9846 7.68993 39.5566 6.65393 37.1766 6.65393C33.5366 6.65393 30.7366 9.59393 30.7366 13.7939V13.9899C30.7366 18.3299 33.5646 20.9899 37.1206 20.9899C39.2766 20.9899 41.0126 19.7019 41.8246 18.2739V20.4859C41.8246 22.7819 40.5926 24.0699 38.1286 24.0699C36.0566 24.0699 35.1326 23.2299 34.8806 21.9419H30.8486C31.2406 24.9659 33.3966 27.0379 38.1286 27.0379ZM38.3246 17.9379C36.3086 17.9379 34.8806 16.4259 34.8806 13.9899V13.7659C34.8806 11.3579 36.1406 9.73393 38.4086 9.73393C40.6206 9.73393 41.9366 11.2459 41.9366 13.7379V13.9339C41.9366 16.4259 40.4526 17.9379 38.3246 17.9379ZM63.1253 14.3819C63.1253 19.0019 59.7933 21.9419 55.3973 21.9419C51.0293 21.9419 47.6973 19.0299 47.6973 14.4659V14.2419C47.6973 9.64993 51.0293 6.65393 55.4253 6.65393C59.8213 6.65393 63.1253 9.59393 63.1253 14.1579V14.3819ZM51.8413 14.3819C51.8413 17.1819 53.1293 18.8619 55.4253 18.8619C57.6933 18.8619 59.0093 17.1819 59.0093 14.4099V14.2139C59.0093 11.4139 57.6933 9.73393 55.4253 9.73393C53.1853 9.73393 51.8413 11.3579 51.8413 14.1579V14.3819Z" fill="black"/>
<path fill-rule="evenodd" clip-rule="evenodd" d="M13.7121 21.6339H1.02808V1.61389H5.56407V18.0779H13.7121V21.6339ZM29.7505 14.3819C29.7505 19.0019 26.4185 21.9419 22.0225 21.9419C17.6545 21.9419 14.3225 19.0299 14.3225 14.4659V14.2419C14.3225 9.64993 17.6545 6.65393 22.0505 6.65393C26.4465 6.65393 29.7505 9.59393 29.7505 14.1579V14.3819ZM18.4665 14.3819C18.4665 17.1819 19.7545 18.8619 22.0505 18.8619C24.3185 18.8619 25.6345 17.1819 25.6345 14.4099V14.2139C25.6345 11.4139 24.3185 9.73393 22.0505 9.73393C19.8105 9.73393 18.4665 11.3579 18.4665 14.1579V14.3819ZM38.1286 27.0379C42.9446 27.0379 45.8286 24.8259 45.8566 20.4859V6.98993H41.8246V9.17393C40.9846 7.68993 39.5566 6.65393 37.1766 6.65393C33.5366 6.65393 30.7366 9.59393 30.7366 13.7939V13.9899C30.7366 18.3299 33.5646 20.9899 37.1206 20.9899C39.2766 20.9899 41.0126 19.7019 41.8246 18.2739V20.4859C41.8246 22.7819 40.5926 24.0699 38.1286 24.0699C36.0566 24.0699 35.1326 23.2299 34.8806 21.9419H30.8486C31.2406 24.9659 33.3966 27.0379 38.1286 27.0379ZM38.3246 17.9379C36.3086 17.9379 34.8806 16.4259 34.8806 13.9899V13.7659C34.8806 11.3579 36.1406 9.73393 38.4086 9.73393C40.6206 9.73393 41.9366 11.2459 41.9366 13.7379V13.9339C41.9366 16.4259 40.4526 17.9379 38.3246 17.9379ZM63.1253 14.3819C63.1253 19.0019 59.7933 21.9419 55.3973 21.9419C51.0293 21.9419 47.6973 19.0299 47.6973 14.4659V14.2419C47.6973 9.64993 51.0293 6.65393 55.4253 6.65393C59.8213 6.65393 63.1253 9.59393 63.1253 14.1579V14.3819ZM51.8413 14.3819C51.8413 17.1819 53.1293 18.8619 55.4253 18.8619C57.6933 18.8619 59.0093 17.1819 59.0093 14.4099V14.2139C59.0093 11.4139 57.6933 9.73393 55.4253 9.73393C53.1853 9.73393 51.8413 11.3579 51.8413 14.1579V14.3819Z" fill="black"/>
</g>
<defs>
<clipPath id="clip0_2312_40">
<rect width="63" height="27" fill="white" transform="translate(0.463623 0.633911)"/>
</clipPath>
</defs>
</svg>
